<?xml version="1.0" standalone="no"?>
<!DOCTYPE svg PUBLIC "-//W3C//DTD SVG 20010904//EN"
 "http://www.w3.org/TR/2001/REC-SVG-20010904/DTD/svg10.dtd">
<svg version="1.0" xmlns="http://www.w3.org/2000/svg"
 width="700.000000pt" height="700.000000pt" viewBox="0 0 700.000000 700.000000"
 preserveAspectRatio="xMidYMid meet">
<metadata>
Created by potrace 1.11, written by Peter Selinger 2001-2013
</metadata>
<g transform="translate(0.000000,700.000000) scale(0.100000,-0.100000)"
fill="#000000" stroke="none">
<path d="M0 3500 l0 -3500 3500 0 3500 0 0 3500 0 3500 -3500 0 -3500 0 0
-3500z m3889 2303 c281 -47 451 -256 401 -493 -11 -53 -11 -63 4 -85 35 -53
98 -52 133 1 25 39 31 199 9 283 -19 75 -18 77 79 111 158 56 343 26 590 -94
125 -62 216 -132 316 -248 77 -90 107 -147 120 -232 13 -76 6 -115 -34 -189
-42 -80 -117 -153 -242 -237 -131 -88 -149 -117 -104 -174 34 -43 73 -36 176
33 115 78 193 148 248 226 36 50 52 64 79 69 109 21 260 -84 326 -227 36 -77
54 -188 45 -276 -7 -69 -37 -151 -54 -151 -6 0 -46 10 -88 22 -109 30 -268 30
-377 -1 -102 -28 -200 -74 -307 -143 -95 -62 -111 -87 -85 -137 28 -54 77 -55
160 -2 95 60 157 89 253 117 166 49 369 31 524 -46 124 -62 169 -131 169 -257
0 -237 -59 -423 -190 -598 -69 -92 -111 -126 -189 -156 -56 -20 -186 -29 -228
-14 -19 6 -105 115 -135 169 -9 17 -17 50 -18 72 0 35 9 53 54 115 63 85 126
207 126 244 0 35 -42 75 -78 75 -35 0 -61 -26 -100 -106 -84 -168 -245 -307
-433 -375 -46 -16 -92 -39 -101 -51 -36 -42 -13 -111 41 -123 21 -4 56 4 122
30 211 82 214 81 394 -157 71 -94 75 -102 75 -151 0 -69 -24 -106 -98 -151
l-59 -37 10 -57 c26 -160 -17 -321 -121 -449 -106 -131 -418 -284 -547 -268
-92 12 -218 62 -328 132 -33 21 -42 23 -53 11 -18 -18 -12 -24 82 -95 95 -72
187 -169 254 -269 63 -92 77 -128 91 -230 11 -75 10 -89 -4 -120 -50 -104
-192 -94 -226 16 -47 156 -113 220 -417 404 -338 205 -421 262 -504 346 -83
83 -138 176 -164 276 -17 66 -21 124 -8 124 4 0 36 -9 72 -21 222 -70 550 -99
885 -79 330 19 658 61 688 87 35 32 11 93 -36 93 -12 0 -62 -7 -112 -15 -49
-8 -167 -18 -261 -22 l-170 -6 -23 29 c-17 21 -21 36 -17 59 17 84 18 232 2
295 -59 232 -223 379 -505 449 -148 37 -260 44 -290 17 -28 -25 -34 -61 -16
-95 17 -34 23 -37 135 -51 192 -25 354 -93 435 -182 72 -80 111 -214 95 -325
-11 -76 -24 -109 -52 -127 -40 -26 -154 -39 -278 -33 -296 16 -573 103 -785
247 -112 76 -147 116 -185 211 -30 73 -34 96 -34 174 -1 72 3 99 21 137 33 73
107 140 207 188 48 23 96 52 107 63 38 41 14 108 -44 122 -31 8 -132 -33 -214
-86 -136 -89 -215 -211 -238 -367 -16 -106 -34 -127 -122 -138 -98 -12 -736 3
-847 21 -119 18 -274 69 -352 116 -84 50 -154 153 -154 225 0 52 128 78 255
51 103 -22 145 -1 145 72 0 54 -54 79 -210 96 -79 9 -174 -10 -249 -51 l-63
-35 -40 28 c-49 33 -131 123 -164 180 -14 23 -35 75 -47 115 -19 65 -22 95
-21 263 1 171 3 200 27 287 31 117 71 203 144 312 103 152 174 207 265 207
110 0 222 -61 376 -204 76 -71 99 -87 124 -87 44 0 78 34 78 77 0 42 -56 101
-200 212 -52 40 -103 86 -114 103 -25 39 -17 121 18 180 56 95 226 242 349
303 119 59 219 48 265 -27 10 -18 39 -82 63 -143 48 -121 73 -155 117 -155 37
0 75 40 74 77 0 16 -24 91 -53 168 -91 246 -70 318 113 381 264 90 496 131
823 143 220 9 294 6 424 -16z"/>
<path d="M3736 5420 c-72 -69 -112 -140 -127 -227 -8 -42 -18 -68 -35 -84 -23
-21 -33 -23 -132 -21 -122 2 -200 19 -282 63 -71 38 -112 79 -148 149 -17 35
-38 60 -56 68 -25 13 -31 12 -55 -5 -82 -61 24 -250 188 -337 116 -61 200 -78
395 -81 l170 -2 29 -34 c66 -77 135 -142 184 -175 128 -85 295 -146 488 -179
55 -9 104 -21 109 -25 6 -6 3 -36 -7 -78 -24 -100 -37 -197 -37 -288 0 -98 20
-134 74 -134 56 0 63 18 68 175 4 111 9 153 27 205 31 89 82 170 164 259 123
135 190 253 217 383 14 69 0 106 -44 121 -47 16 -75 -14 -101 -108 -32 -120
-79 -200 -184 -308 -79 -83 -106 -89 -264 -62 -299 53 -515 175 -596 337 -56
112 -38 200 63 298 62 60 71 95 36 130 -37 37 -75 27 -144 -40z"/>
<path d="M2815 4694 c-108 -24 -221 -72 -304 -128 -87 -60 -106 -88 -90 -135
23 -66 75 -67 171 -2 138 91 256 126 412 119 120 -5 195 -29 308 -95 63 -36
83 -43 108 -38 64 14 80 88 30 135 -39 37 -198 115 -275 135 -90 23 -275 28
-360 9z"/>
<path d="M3902 4370 c-41 -17 -55 -71 -60 -245 -5 -156 -5 -160 -31 -186 -70
-70 -320 -53 -456 31 -43 27 -81 25 -110 -5 -69 -68 22 -157 210 -205 90 -23
143 -26 313 -15 l132 8 33 -38 c77 -91 176 -183 227 -211 129 -72 250 -98 452
-99 152 0 157 1 182 24 34 32 35 79 3 109 -21 20 -34 22 -149 22 -378 0 -571
124 -634 407 -14 62 -16 105 -11 219 6 126 4 145 -11 163 -21 25 -59 33 -90
21z"/>
<path d="M1485 4115 c-31 -30 -32 -73 -5 -103 52 -56 238 -160 368 -207 97
-34 216 -63 299 -71 76 -7 122 -28 147 -66 8 -13 27 -90 41 -171 14 -82 29
-155 32 -163 8 -23 61 -46 86 -38 63 19 69 54 37 230 -36 201 -30 219 110 289
92 46 235 148 270 192 29 37 26 87 -6 112 -42 33 -66 26 -160 -50 -156 -124
-305 -179 -482 -179 -191 0 -397 70 -589 201 -81 55 -113 60 -148 24z"/>
</g>
</svg>
