<?xml version="1.0" encoding="UTF-8"?>
<svg width="36px" height="36px" viewBox="0 0 36 36" version="1.1" xmlns="http://www.w3.org/2000/svg" xmlns:xlink="http://www.w3.org/1999/xlink">
    <!-- Generator: Sketch 50.2 (55047) - http://www.bohemiancoding.com/sketch -->
    <title>icon/facebook</title>
    <desc>Created with Sketch.</desc>
    <defs></defs>
    <g id="Website" stroke="none" stroke-width="1" fill="none" fill-rule="evenodd">
        <g id="Extra-large:-Desktops---12-col" transform="translate(-702.000000, -1889.000000)" fill="#27303B">
            <g id="Footer" transform="translate(-5.000000, 1846.000000)">
                <g id="icon/facebook" transform="translate(707.000000, 43.000000)">
                    <path d="M29.25,0 C31.1093843,0 32.6992121,0.660149648 34.0195312,1.98046875 C35.3398504,3.30078785 36,4.8906157 36,6.75 L36,29.25 C36,31.1093843 35.3398504,32.6992121 34.0195312,34.0195312 C32.6992121,35.3398504 31.1093843,36 29.25,36 L24.84375,36 L24.84375,22.0546875 L29.5078125,22.0546875 L30.2109375,16.6171875 L24.84375,16.6171875 L24.84375,13.1484375 C24.84375,12.2734331 25.0273419,11.6171897 25.3945312,11.1796875 C25.7617206,10.7421853 26.4765572,10.5234375 27.5390625,10.5234375 L30.3984375,10.5 L30.3984375,5.6484375 C29.4140576,5.5078118 28.0234465,5.4375 26.2265625,5.4375 C24.1015519,5.4375 22.4023501,6.06249375 21.1289062,7.3125 C19.8554624,8.56250625 19.21875,10.3281136 19.21875,12.609375 L19.21875,16.6171875 L14.53125,16.6171875 L14.53125,22.0546875 L19.21875,22.0546875 L19.21875,36 L6.75,36 C4.8906157,36 3.30078785,35.3398504 1.98046875,34.0195312 C0.660149648,32.6992121 0,31.1093843 0,29.25 L0,6.75 C0,4.8906157 0.660149648,3.30078785 1.98046875,1.98046875 C3.30078785,0.660149648 4.8906157,0 6.75,0 L29.25,0 Z" id=""></path>
                </g>
            </g>
        </g>
    </g>
</svg>