<?xml version="1.0" encoding="UTF-8"?>
<svg width="36px" height="36px" viewBox="0 0 36 36" version="1.1" xmlns="http://www.w3.org/2000/svg" xmlns:xlink="http://www.w3.org/1999/xlink">
    <!-- Generator: Sketch 50.2 (55047) - http://www.bohemiancoding.com/sketch -->
    <title>icon/pinterest</title>
    <desc>Created with Sketch.</desc>
    <defs></defs>
    <g id="Website" stroke="none" stroke-width="1" fill="none" fill-rule="evenodd">
        <g id="Extra-large:-Desktops---12-col" transform="translate(-768.000000, -1889.000000)" fill="#27303B">
            <g id="Footer" transform="translate(-5.000000, 1846.000000)">
                <g id="icon/pinterest" transform="translate(773.000000, 43.000000)">
                    <path d="M29.25,0 C31.1093843,0 32.6992121,0.660149648 34.0195312,1.98046875 C35.3398504,3.30078785 36,4.8906157 36,6.75 L36,29.25 C36,31.1093843 35.3398504,32.6992121 34.0195312,34.0195312 C32.6992121,35.3398504 31.1093843,36 29.25,36 L12.2578125,36 C13.5859441,34.0937405 14.4296857,32.4531319 14.7890625,31.078125 C14.9296882,30.5468723 15.3437466,28.9140762 16.03125,26.1796875 C16.3593766,26.7890655 16.9335896,27.3124978 17.7539062,27.75 C18.5742229,28.1875022 19.4531203,28.40625 20.390625,28.40625 C23.2187641,28.40625 25.5273348,27.2539178 27.3164062,24.9492188 C29.1054777,22.6445197 30,19.7265802 30,16.1953125 C30,14.8828059 29.7265652,13.6132874 29.1796875,12.3867188 C28.6328098,11.1601501 27.8789111,10.0742235 26.9179688,9.12890625 C25.9570264,8.18358902 24.7656321,7.4257841 23.34375,6.85546875 C21.9218679,6.2851534 20.3828208,6 18.7265625,6 C17.1015544,6 15.5820383,6.22265402 14.1679688,6.66796875 C12.7538992,7.11328348 11.5585986,7.71093375 10.5820312,8.4609375 C9.60546387,9.21094125 8.76562852,10.0664014 8.0625,11.0273438 C7.35937148,11.9882861 6.83984543,12.9882761 6.50390625,14.0273438 C6.16796707,15.0664114 6,16.1015573 6,17.1328125 C6,18.7265705 6.30859066,20.1328064 6.92578125,21.3515625 C7.54297184,22.5703186 8.45311898,23.429685 9.65625,23.9296875 C9.85937602,24.0078129 10.0429679,24.0078129 10.2070312,23.9296875 C10.3710946,23.8515621 10.4843747,23.7031261 10.546875,23.484375 C10.7031258,22.7968716 10.8203121,22.3203138 10.8984375,22.0546875 C10.992188,21.6953107 10.9062513,21.367189 10.640625,21.0703125 C9.85937109,20.1015577 9.46875,18.9296944 9.46875,17.5546875 C9.46875,15.2109258 10.2773357,13.2070396 11.8945312,11.5429688 C13.5117268,9.87889793 15.624987,9.046875 18.234375,9.046875 C20.5625116,9.046875 22.3788997,9.67968117 23.6835938,10.9453125 C24.9882878,12.2109438 25.640625,13.8515524 25.640625,15.8671875 C25.640625,18.4922006 25.1132865,20.7265533 24.0585938,22.5703125 C23.003901,24.4140717 21.6484458,25.3359375 19.9921875,25.3359375 C19.0546828,25.3359375 18.2968779,24.9960971 17.71875,24.3164062 C17.1406221,23.6367154 16.9609364,22.8281297 17.1796875,21.890625 C17.3046881,21.3593723 17.5117173,20.6367233 17.8007812,19.7226562 C18.0898452,18.8085892 18.3203116,18.0117221 18.4921875,17.3320312 C18.6640634,16.6523404 18.75,16.0703149 18.75,15.5859375 C18.75,14.8203087 18.5429708,14.1835963 18.1289062,13.6757812 C17.7148417,13.1679662 17.1250038,12.9140625 16.359375,12.9140625 C15.4062452,12.9140625 14.5976596,13.3554643 13.9335938,14.2382812 C13.2695279,15.1210982 12.9375,16.210931 12.9375,17.5078125 C12.9375,18.6328181 13.1249981,19.5781212 13.5,20.34375 L11.203125,30.046875 C10.8281231,31.6093828 10.7734362,33.593738 11.0390625,36 L6.75,36 C4.8906157,36 3.30078785,35.3398504 1.98046875,34.0195312 C0.660149648,32.6992121 0,31.1093843 0,29.25 L0,6.75 C0,4.8906157 0.660149648,3.30078785 1.98046875,1.98046875 C3.30078785,0.660149648 4.8906157,0 6.75,0 L29.25,0 Z" id=""></path>
                </g>
            </g>
        </g>
    </g>
</svg>