<?xml version="1.0" encoding="UTF-8"?>
<svg width="36px" height="36px" viewBox="0 0 36 36" version="1.1" xmlns="http://www.w3.org/2000/svg" xmlns:xlink="http://www.w3.org/1999/xlink">
    <!-- Generator: Sketch 50.2 (55047) - http://www.bohemiancoding.com/sketch -->
    <title>icon/twitter</title>
    <desc>Created with Sketch.</desc>
    <defs></defs>
    <g id="Website" stroke="none" stroke-width="1" fill="none" fill-rule="evenodd">
        <g id="Extra-large:-Desktops---12-col" transform="translate(-636.000000, -1889.000000)" fill="#27303B">
            <g id="Footer" transform="translate(-5.000000, 1846.000000)">
                <g id="icon/twitter" transform="translate(641.000000, 43.000000)">
                    <path d="M30,11.296875 C29.1249956,11.687502 28.1796926,11.9531243 27.1640625,12.09375 C28.2265678,11.4687469 28.953123,10.5546935 29.34375,9.3515625 C28.3281199,9.94531547 27.2812554,10.343749 26.203125,10.546875 C25.2499952,9.51561984 24.0546947,9 22.6171875,9 C21.2578057,9 20.0976611,9.48046395 19.1367188,10.4414062 C18.1757764,11.4023486 17.6953125,12.5624932 17.6953125,13.921875 C17.6953125,14.3750023 17.7343746,14.7499985 17.8125,15.046875 C15.7968649,14.9374995 13.9062588,14.429692 12.140625,13.5234375 C10.3749912,12.617183 8.87500617,11.4062576 7.640625,9.890625 C7.18749773,10.6718789 6.9609375,11.4999956 6.9609375,12.375 C6.9609375,14.1562589 7.67186789,15.5234327 9.09375,16.4765625 C8.35937133,16.4609374 7.57812914,16.2578145 6.75,15.8671875 L6.75,15.9140625 C6.75,17.0859434 7.14062109,18.1289017 7.921875,19.0429688 C8.70312891,19.9570358 9.6640568,20.5234364 10.8046875,20.7421875 C10.3515602,20.8671881 9.95312672,20.9296875 9.609375,20.9296875 C9.40624898,20.9296875 9.10156453,20.8984378 8.6953125,20.8359375 C9.02343914,21.8203174 9.60546457,22.6328093 10.4414062,23.2734375 C11.2773479,23.9140657 12.2265572,24.2421874 13.2890625,24.2578125 C11.4765534,25.6640695 9.43751133,26.3671875 7.171875,26.3671875 C6.76562297,26.3671875 6.37500187,26.3437502 6,26.296875 C8.31251156,27.7656323 10.8281114,28.5 13.546875,28.5 C15.2968838,28.5 16.9374923,28.222659 18.46875,27.6679688 C20.0000077,27.1132785 21.3124945,26.3710984 22.40625,25.4414062 C23.5000055,24.5117141 24.4414023,23.4414123 25.2304688,22.2304688 C26.0195352,21.0195252 26.6054668,19.7539129 26.9882812,18.4335938 C27.3710957,17.1132746 27.5625,15.7968816 27.5625,14.484375 C27.5625,14.2031236 27.5546876,13.9921882 27.5390625,13.8515625 C28.5234424,13.148434 29.3437467,12.29688 30,11.296875 Z M36,6.75 L36,29.25 C36,31.1093843 35.3398504,32.6992121 34.0195312,34.0195312 C32.6992121,35.3398504 31.1093843,36 29.25,36 L6.75,36 C4.8906157,36 3.30078785,35.3398504 1.98046875,34.0195312 C0.660149648,32.6992121 0,31.1093843 0,29.25 L0,6.75 C0,4.8906157 0.660149648,3.30078785 1.98046875,1.98046875 C3.30078785,0.660149648 4.8906157,0 6.75,0 L29.25,0 C31.1093843,0 32.6992121,0.660149648 34.0195312,1.98046875 C35.3398504,3.30078785 36,4.8906157 36,6.75 Z" id="ï‚"></path>
                </g>
            </g>
        </g>
    </g>
</svg>